<svg width="924" height="869" viewBox="0 0 924 869" xmlns="http://www.w3.org/2000/svg"><title>Polygon 2 Copy 4</title><defs><linearGradient x1="93.466%" y1="57.961%" x2="39.854%" y2="82.848%" id="a"><stop stop-color="#E0F8F8" offset="0%"/><stop stop-color="#FFF" stop-opacity="0" offset="100%"/></linearGradient></defs><path d="M4287.67 320.327l307.557 184.274a100 100 0 0 1 48.604 85.781v375.06a100 100 0 0 1-48.604 85.78l-307.557 184.275c-31.642 18.958-71.15 18.958-102.793 0l-307.557-184.274a100 100 0 0 1-48.604-85.782V590.382a100 100 0 0 1 48.604-85.78l307.557-184.275c31.642-18.958 71.151-18.958 102.793 0z" fill="url(#a)" transform="rotate(78 2563.558 -1728.422)" fill-rule="evenodd"/></svg>