<svg width="956" height="297" viewBox="0 0 956 297" xmlns="http://www.w3.org/2000/svg" xmlns:xlink="http://www.w3.org/1999/xlink"><title>Group 12</title><defs><linearGradient x1="50%" y1="1.666%" x2="50%" y2="236.244%" id="b"><stop stop-color="#86E8CF" offset="0%"/><stop stop-color="#3BC4A1" offset="100%"/></linearGradient><path d="M57.704.045L128 27.315v20.958a5 5 0 0 1-2.43 4.29L76.54 81.932a10 10 0 0 1-8.449.857L3.345 60.074A5 5 0 0 1 0 55.356V35.168L57.704.045z" id="a"/><linearGradient x1="-23.546%" y1="61.719%" x2="127.317%" y2="52.726%" id="c"><stop stop-color="#22D1D1" offset="0%"/><stop stop-color="#0FA5A5" offset="100%"/></linearGradient><linearGradient x1="0%" y1="56.285%" x2="104.12%" y2="86.551%" id="f"><stop stop-color="#86E8CF" offset="0%"/><stop stop-color="#3BC4A1" offset="100%"/></linearGradient><path d="M57.704.045l67.104 26.033A5 5 0 0 1 128 30.739v73.534a5 5 0 0 1-2.43 4.29L76.942 137.69a11 11 0 0 1-9.294.943l-64.304-22.56A5 5 0 0 1 0 111.356V37.978a5 5 0 0 1 2.4-4.271L57.704.045z" id="e"/><linearGradient x1="0%" y1="44.267%" x2="145.588%" y2="24.122%" id="g"><stop stop-color="#86E8CF" offset="0%"/><stop stop-color="#3BC4A1" offset="100%"/></linearGradient><linearGradient x1="-22.694%" y1="50%" x2="174.659%" y2="50%" id="i"><stop stop-color="#86E8CF" offset="0%"/><stop stop-color="#3BC4A1" offset="100%"/></linearGradient><linearGradient x1="50%" y1="7.933%" x2="50%" y2="148.791%" id="j"><stop stop-color="#46D6D6" offset="0%"/><stop stop-color="#0FA5A5" offset="100%"/></linearGradient><linearGradient x1="27.542%" y1="64.071%" y2="59.112%" id="l"><stop stop-color="#22D1D1" offset="0%"/><stop stop-color="#0FA5A5" offset="100%"/></linearGradient><path d="M57.704.045L128 27.315v20.958a5 5 0 0 1-2.43 4.29L76.54 81.932a10 10 0 0 1-8.449.857L3.345 60.074A5 5 0 0 1 0 55.356V35.168L57.704.045z" id="k"/><linearGradient x1="-16.685%" y1="57.309%" x2="108.089%" y2="64.691%" id="n"><stop stop-color="#22D1D1" offset="0%"/><stop stop-color="#0FA5A5" offset="100%"/></linearGradient><path d="M57.704.045L128 27.315v23.792L80.564 79.52a20 20 0 0 1-16.899 1.715L0 58.901V35.168L57.704.045z" id="o"/><path d="M57.704.045l67.104 26.033A5 5 0 0 1 128 30.739v20.368L80.564 79.52a20 20 0 0 1-16.899 1.715L0 58.901V37.978a5 5 0 0 1 2.4-4.271L57.704.045z" id="q"/><filter x="-3.5%" y="-3%" width="106.9%" height="108.3%" filterUnits="objectBoundingBox" id="s"><feOffset dy="2" in="SourceAlpha" result="shadowOffsetOuter1"/><feGaussianBlur stdDeviation="2" in="shadowOffsetOuter1" result="shadowBlurOuter1"/><feColorMatrix values="0 0 0 0 0 0 0 0 0 0 0 0 0 0 0 0 0 0 0.156731205 0" in="shadowBlurOuter1" result="shadowMatrixOuter1"/><feMerge><feMergeNode in="shadowMatrixOuter1"/><feMergeNode in="SourceGraphic"/></feMerge></filter><linearGradient x1="-16.497%" y1="78.513%" x2="102.151%" y2="90.304%" id="t"><stop stop-color="#F7F7F7" offset="0%"/><stop stop-color="#EBEBEB" offset="100%"/></linearGradient><linearGradient x1="-34.291%" y1="26.705%" y2="84.388%" id="u"><stop stop-color="#5D6A6A" offset="0%"/><stop stop-color="#374040" offset="100%"/></linearGradient><linearGradient x1="31.775%" y1="0%" x2="106.68%" y2="50%" id="v"><stop stop-color="#5D6A6A" offset="0%"/><stop stop-color="#374040" offset="100%"/></linearGradient><linearGradient x1="25.918%" y1="21.026%" x2="109.426%" y2="82.136%" id="w"><stop stop-color="#FCFCFC" offset="0%"/><stop stop-color="#F0F0F0" offset="100%"/></linearGradient><path d="M.5.5l77 27" id="y"/><filter x="-9.3%" y="-18.8%" width="118.6%" height="151.8%" filterUnits="objectBoundingBox" id="x"><feMorphology radius=".25" operator="dilate" in="SourceAlpha" result="shadowSpreadOuter1"/><feOffset dy="2" in="shadowSpreadOuter1" result="shadowOffsetOuter1"/><feMorphology radius="1" in="SourceAlpha" result="shadowInner"/><feOffset dy="2" in="shadowInner" result="shadowInner"/><feComposite in="shadowOffsetOuter1" in2="shadowInner" operator="out" result="shadowOffsetOuter1"/><feGaussianBlur stdDeviation="2" in="shadowOffsetOuter1" result="shadowBlurOuter1"/><feColorMatrix values="0 0 0 0 0 0 0 0 0 0 0 0 0 0 0 0 0 0 0.619310462 0" in="shadowBlurOuter1"/></filter><linearGradient x1="22.435%" y1="35.143%" x2="126.469%" y2="100%" id="z"><stop stop-color="#FFF" offset="0%"/><stop stop-color="#FFF" stop-opacity="0" offset="100%"/></linearGradient><linearGradient x1="100%" y1="100%" x2="11.405%" y2="29.754%" id="A"><stop stop-color="#22D1D1" offset="0%"/><stop stop-color="#3FDBDB" offset="100%"/></linearGradient><linearGradient x1="45.589%" y1="102.734%" x2="43.507%" y2="27.575%" id="B"><stop stop-color="#FFF" stop-opacity="0" offset="0%"/><stop stop-color="#FFF" offset="100%"/></linearGradient><linearGradient x1="50%" y1="4.438%" x2="50%" y2="153.172%" id="C"><stop stop-color="#FFDA7C" offset="0%"/><stop stop-color="#FFC021" offset="100%"/></linearGradient><filter y="-15.3%" height="136.1%" filterUnits="objectBoundingBox" id="D"><feOffset dy="1" in="SourceAlpha" result="shadowOffsetOuter1"/><feGaussianBlur stdDeviation="2" in="shadowOffsetOuter1" result="shadowBlurOuter1"/><feColorMatrix values="0 0 0 0 0 0 0 0 0 0 0 0 0 0 0 0 0 0 0.326341712 0" in="shadowBlurOuter1" result="shadowMatrixOuter1"/><feMerge><feMergeNode in="shadowMatrixOuter1"/><feMergeNode in="SourceGraphic"/></feMerge></filter><path d="M798.014 110.528l-3.31 3.561c-2.68 2.882-7.021 1.484-9.698-3.123-2.677-4.609-2.674-10.679.005-13.56l5.9-6.348c-.503 3.504.26 7.69 2.29 11.184l4.813 8.286zm15.002-4.301c2.694 4.638 2.694 10.748 0 13.647-2.696 2.9-7.064 1.489-9.759-3.15l-3.22-5.544 4.908-5.28c2.016-2.168 2.778-5.834 2.283-9.637l5.788 9.964zm-13.99 3.213l-4.814-8.286c-2.694-4.638-2.694-10.748 0-13.647 2.69-2.894 7.047-1.495 9.743 3.121 2.66 4.605 2.652 10.656-.022 13.532l-4.907 5.28z" id="E"/><path d="M796.014 110.528l-3.31 3.561c-2.68 2.882-7.021 1.484-9.698-3.123-2.677-4.609-2.674-10.679.005-13.56l5.9-6.348c-.503 3.504.26 7.69 2.29 11.184l4.813 8.286zm15.002-4.301c2.694 4.638 2.694 10.748 0 13.647-2.696 2.9-7.064 1.489-9.759-3.15l-3.22-5.544 4.908-5.28c2.016-2.168 2.778-5.834 2.283-9.637l5.788 9.964zm-13.99 3.213l-4.814-8.286c-2.694-4.638-2.694-10.748 0-13.647 2.69-2.894 7.047-1.495 9.743 3.121 2.66 4.605 2.652 10.656-.022 13.532l-4.907 5.28z" id="F"/></defs><g transform="translate(4 2)" fill="none" fill-rule="evenodd"><g transform="translate(763 70)"><mask id="d" fill="#fff"><use xlink:href="#a"/></mask><use fill="url(#b)" xlink:href="#a"/><path fill="url(#c)" opacity=".758" mask="url(#d)" d="M72.348-26.068h62.454V96.826H72.348z"/></g><g transform="translate(763 14)"><mask id="h" fill="#fff"><use xlink:href="#e"/></mask><use fill="url(#f)" xlink:href="#e"/><path fill="url(#g)" opacity=".758" mask="url(#h)" d="M72.348 27.93h62.454v122.894H72.348z"/></g><path d="M57.704 0l66.503 26.036a2 2 0 0 1 .299 3.578l-51.99 31.142L1.988 36.012a1 1 0 0 1-.19-1.796L57.703 0z" fill="url(#i)" transform="translate(763 14)"/><path d="M820.704 14l68.4 26.779a1 1 0 0 1 .149 1.789l-53.736 32.188-70.53-24.744a1 1 0 0 1-.19-1.796L820.703 14z" fill-opacity=".32" fill="#FFF" opacity=".772"/><path d="M.292 42.62v94.78l84.685 31.04 68.315-40.279V34.233L68.415.959.292 42.619z" fill="url(#j)" opacity=".15" transform="translate(750)"/><g transform="translate(412 196)"><mask id="m" fill="#fff"><use xlink:href="#k"/></mask><use fill="url(#l)" xlink:href="#k"/><path fill="url(#c)" opacity=".758" mask="url(#m)" d="M72.348-26.068h62.454V96.826H72.348z"/></g><path d="M57.704 0L128 27.521 76.54 58.346a10 10 0 0 1-8.449.857L0 35.315 57.704 0z" fill="url(#n)" transform="translate(412 196)"/><g transform="translate(412 168)"><mask id="p" fill="#fff"><use xlink:href="#o"/></mask><use fill="url(#l)" xlink:href="#o"/><path fill="url(#c)" opacity=".758" mask="url(#p)" d="M72.348 1.241h62.454v122.894H72.348z"/></g><path d="M57.704 0L128 27.521 76.54 58.346a10 10 0 0 1-8.449.857L0 35.315 57.704 0z" fill="url(#n)" transform="translate(412 168)"/><g transform="translate(412 140)"><mask id="r" fill="#fff"><use xlink:href="#q"/></mask><use fill="url(#l)" xlink:href="#q"/><path fill="url(#c)" opacity=".758" mask="url(#r)" d="M72.348 27.93h62.454v122.894H72.348z"/></g><path d="M57.704 0l66.503 26.036a2 2 0 0 1 .299 3.578l-51.99 31.142L1.988 36.012a1 1 0 0 1-.19-1.796L57.703 0z" fill="url(#n)" transform="translate(412 140)"/><path d="M469.704 140l68.4 26.779a1 1 0 0 1 .149 1.789l-53.736 32.188-70.53-24.744a1 1 0 0 1-.19-1.796L469.703 140z" fill-opacity=".32" fill="#FFF"/><g transform="translate(434 194)" fill="#FFF"><path d="M.945.328l34.11 11.839c.566.196.945.729.945 1.328a.711.711 0 0 1-.945.672L.945 2.327A1.406 1.406 0 0 1 0 1 .711.711 0 0 1 .945.328z"/><circle cx="40" cy="15" r="1"/></g><g transform="translate(434 223)" fill="#FFF"><path d="M.945.328l34.11 11.839c.566.196.945.729.945 1.328a.711.711 0 0 1-.945.672L.945 2.327A1.406 1.406 0 0 1 0 1 .711.711 0 0 1 .945.328z"/><circle cx="40" cy="15" r="1"/></g><g transform="translate(434 250)" fill="#FFF"><path d="M.945.328l34.11 11.839c.566.196.945.729.945 1.328a.711.711 0 0 1-.945.672L.945 2.327A1.406 1.406 0 0 1 0 1 .711.711 0 0 1 .945.328z"/><circle cx="40" cy="15" r="1"/></g><path d="M399 168.66v94.78l84.685 31.041L552 254.202v-93.928L467.123 127 399 168.66z" stroke="#979797" opacity=".4" stroke-dasharray="4,4"/><g filter="url(#s)"><path d="M72.457 81.045v-73.4a6 6 0 0 1 7.951-5.673L197.951 42.4A6 6 0 0 1 202 48.074v74.882a6 6 0 0 1-2.887 5.129l-64.116 38.92a10 10 0 0 1-8.409.92L1.356 125.333A2 2 0 0 1 0 123.439v-.759l72.457-41.635z" fill="url(#t)"/><path d="M72.457 81.045V4.842a4 4 0 0 1 5.3-3.782L197.952 42.4A6 6 0 0 1 202 48.075v76.85a1 1 0 0 1-1.33.943L72.457 81.045z" fill="url(#u)"/><path d="M73.92 78.854V5.641a3 3 0 0 1 3.982-2.835l118.597 41.05a6 6 0 0 1 4.037 5.67v73.195a1 1 0 0 1-1.337.942L73.92 78.854z" fill="url(#v)"/><path d="M72.457 79.887l128.08 46.017-65.557 39.256a10 10 0 0 1-8.357.888L0 122.983l72.457-43.096z" fill="url(#w)"/><path d="M71.861 128.556l28.51 9.68a1.5 1.5 0 0 1 .293 2.703l-13.777 8.33a5 5 0 0 1-4.223.446l-28.201-9.765a1.5 1.5 0 0 1-.291-2.698l13.476-8.229a5 5 0 0 1 4.213-.467z" fill="#EBEBEB"/><g transform="translate(53 99)" opacity=".5" stroke-linecap="square"><use fill="#000" filter="url(#x)" xlink:href="#y"/><use stroke-opacity="0" stroke="#979797" stroke-width=".5" xlink:href="#y"/></g><path d="M72.457 80.045V3.168a3 3 0 0 1 3.96-2.841l121.505 41.087A6 6 0 0 1 202 47.098v74.858a6 6 0 0 1-2.887 5.129l-64.116 38.92a10 10 0 0 1-8.409.92L1.356 124.333A2 2 0 0 1 0 122.439v-.759l72.457-41.635z" opacity=".15" fill="url(#z)"/></g><path d="M193 132l219.5 77.5M759 132l-219.5 77.5" stroke="#FFC021" stroke-width="2" stroke-linecap="round" stroke-linejoin="round" stroke-dasharray="1,8"/><path d="M2.636.36L49.59 16.102A5 5 0 0 1 53 20.844v33.9a2 2 0 0 1-2.636 1.897L3.41 40.897A5 5 0 0 1 0 36.156v-33.9A2 2 0 0 1 2.636.358z" opacity=".3" transform="translate(32 5)" fill="url(#A)"/><path d="M8.628 4.012l52.94 17.494A5 5 0 0 1 65 26.254v31.835a2 2 0 0 1-2.628 1.899L9.432 42.494A5 5 0 0 1 6 37.746V5.911a2 2 0 0 1 2.628-1.899z" fill="url(#B)" opacity=".188" transform="translate(93 29)"/><path d="M14.628 1.012l52.94 17.494A5 5 0 0 1 71 23.254v31.835a2 2 0 0 1-2.628 1.899l-52.94-17.494A5 5 0 0 1 12 34.746V2.911a2 2 0 0 1 2.628-1.899z" fill="url(#B)" opacity=".1" transform="translate(93 29)"/><path d="M2.628 7.012l52.94 17.494A5 5 0 0 1 59 29.254v31.835a2 2 0 0 1-2.628 1.899L3.432 45.494A5 5 0 0 1 0 40.746V8.911a2 2 0 0 1 2.628-1.899z" fill="url(#b)" transform="translate(93 29)"/><path d="M2.636.36L49.59 16.102A5 5 0 0 1 53 20.844v33.9a2 2 0 0 1-2.636 1.897L3.41 40.897A5 5 0 0 1 0 36.156v-33.9A2 2 0 0 1 2.636.358z" opacity=".5" transform="translate(168 42)" fill="url(#C)"/><g filter="url(#D)" transform="rotate(-1 8644.354 -8501.649)"><path d="M42.825 2.158l21.18 7.169a1.441 1.441 0 0 1 .286 2.608L24.664 35.579a2.992 2.992 0 0 1-2.49.263L.995 28.673a1.443 1.443 0 0 1-.913-1.841c.112-.32.334-.591.628-.767L40.336 2.421a2.992 2.992 0 0 1 2.49-.263z" fill="#EBEBEB"/><path d="M42.825.158l21.18 7.169a1.441 1.441 0 0 1 .286 2.608L24.664 33.579a2.992 2.992 0 0 1-2.49.263L.995 26.673a1.443 1.443 0 0 1-.913-1.841c.112-.32.334-.591.628-.767L40.336.421a2.992 2.992 0 0 1 2.49-.263z" fill="#FFF"/><path d="M42.132 1.134l20.353 6.345a.73.73 0 0 1 .158 1.322L28.182 29.584a2.955 2.955 0 0 1-2.414.275L5.51 23.134a.73.73 0 0 1-.473-.919c.054-.167.322-.5.473-.591L39.733 1.42a2.955 2.955 0 0 1 2.4-.287z" fill="url(#v)"/></g><path d="M723.636 104.104l13.954 4.679a5 5 0 0 1 3.41 4.74v8.822a2 2 0 0 1-2.636 1.897l-13.954-4.68a5 5 0 0 1-3.41-4.74V106a2 2 0 0 1 2.636-1.896z" fill="url(#C)" opacity=".7"/><path d="M683.636 144.104l21.954 7.361a5 5 0 0 1 3.41 4.74v14.902a2 2 0 0 1-2.636 1.897l-21.954-7.362a5 5 0 0 1-3.41-4.74V146a2 2 0 0 1 2.636-1.896z" fill="url(#A)"/><path d="M626.628 144.101l18.097 5.98a5 5 0 0 1 3.43 4.748v9.265a2 2 0 0 1-2.627 1.899l-18.097-5.98a5 5 0 0 1-3.431-4.748V146a2 2 0 0 1 2.628-1.899z" fill="url(#b)" opacity=".7"/><path d="M592.636 198.104l13.954 4.679a5 5 0 0 1 3.41 4.74v8.822a2 2 0 0 1-2.636 1.897l-13.954-4.68a5 5 0 0 1-3.41-4.74V200a2 2 0 0 1 2.636-1.896z" fill="url(#C)" opacity=".7"/><path d="M358.944 151.796l14.416 7.717a5 5 0 0 1 2.64 4.408v8.865a2 2 0 0 1-2.944 1.763l-14.416-7.717a5 5 0 0 1-2.64-4.408v-8.865a2 2 0 0 1 2.944-1.763z" fill="url(#C)" opacity=".7" transform="matrix(-1 0 0 1 732 0)"/><path d="M270.889 169.666l18.489 9.17a5 5 0 0 1 2.778 4.48v9.32a2 2 0 0 1-2.889 1.792l-18.489-9.171a5 5 0 0 1-2.778-4.48v-9.32a2 2 0 0 1 2.889-1.791z" fill="url(#b)" opacity=".7" transform="matrix(-1 0 0 1 560.156 0)"/><path d="M271.001 124.956l10.959 6.338a5 5 0 0 1 2.497 4.328v6.155a2 2 0 0 1-3.002 1.731l-10.958-6.338a5 5 0 0 1-2.497-4.328v-6.155a2 2 0 0 1 3.001-1.731z" fill="url(#A)" opacity=".7" transform="matrix(-1 0 0 1 552.457 0)"/><use fill="#52D0B5" xlink:href="#E"/><use fill="#FFF" xlink:href="#F"/></g></svg>